<svg xmlns="http://www.w3.org/2000/svg" xml:space="preserve" width="16" height="16" viewBox="0 0 512 512"><path fill="#105289" d="M394.667 266.667c-26.368 0-52.139 8.939-72.491 25.152-28.501 22.251-44.843 55.851-44.843 92.181 0 64.704 52.651 117.333 117.333 117.333 11.093 0 21.867-1.515 31.979-4.459C476.885 482.731 512 436.309 512 384c0-64.704-52.651-117.333-117.333-117.333m26.09 209.685c-8.256 2.411-17.045 3.648-26.091 3.648-52.928 0-96-43.072-96-96 0-29.717 13.355-57.195 36.715-75.435C352.043 295.296 373.099 288 394.667 288c52.928 0 96 43.072 96 96 0 42.795-28.715 80.768-69.91 92.352M311.445 291.84c3.755 0 7.403-1.984 9.344-5.504 2.859-5.163.981-11.648-4.181-14.507-14.656-8.085-30.315-14.208-46.443-18.645 42.112-20.971 71.168-64.363 71.168-114.517 0-70.592-57.408-128-128-128s-128 57.408-128 128c0 50.133 29.035 93.483 71.083 114.475-35.2 9.664-67.52 28.139-93.995 54.613C22.165 348.011 0 401.6 0 458.667v32c0 5.888 4.779 10.667 10.667 10.667s10.667-4.779 10.667-10.667v-32c0-51.371 19.968-99.584 56.192-135.829s84.459-56.171 135.808-56.171c32.533 0 64.683 8.256 92.971 23.851a10.6 10.6 0 0 0 5.14 1.322M106.667 138.667C106.667 79.851 154.517 32 213.333 32S320 79.851 320 138.667s-47.851 106.667-106.667 106.667c-58.816-.001-106.666-47.851-106.666-106.667" data-original="#000000"/><path fill="#105289" d="M448 373.333h-42.667v-42.667c0-5.888-4.779-10.667-10.667-10.667S384 324.779 384 330.667v42.667h-42.667c-5.888 0-10.667 4.779-10.667 10.667s4.779 10.667 10.667 10.667H384v42.667c0 5.888 4.779 10.667 10.667 10.667s10.667-4.779 10.667-10.667v-42.667H448c5.888 0 10.667-4.779 10.667-10.667s-4.779-10.668-10.667-10.668" data-original="#000000"/></svg>