<svg xmlns="http://www.w3.org/2000/svg" xml:space="preserve" width="12" height="12" viewBox="0 0 64 64"><g data-name="Layer 36"><path fill="#ffc10a" d="m54.77 19.94-17-17a1.5 1.5 0 0 0-1.06-.44H14.86a6.07 6.07 0 0 0-6.07 6.07v46.86a6.07 6.07 0 0 0 6.07 6.07h34.28a6.07 6.07 0 0 0 6.07-6.07V21a1.5 1.5 0 0 0-.44-1.06" data-original="#ffc10a"/><path fill="#fe9803" d="m54.77 19.94-17-17a1.5 1.5 0 0 0-1.63-.33A1.51 1.51 0 0 0 35.21 4v17a1.5 1.5 0 0 0 1.5 1.5h17a1.51 1.51 0 0 0 1.39-.93 1.5 1.5 0 0 0-.33-1.63" data-original="#fe9803"/><path d="M55.18 20.7a1.6 1.6 0 0 0-.41-.76l-17-17a1.52 1.52 0 0 0-1.06-.44H14.86a6.07 6.07 0 0 0-6.07 6.07v46.86a6.07 6.07 0 0 0 6.07 6.07h34.28a6.07 6.07 0 0 0 6.07-6.07V21a1.5 1.5 0 0 0-.03-.3m-17-13.08L50.09 19.5H38.21zM49.14 58.5H14.86a3.08 3.08 0 0 1-3.07-3.07V8.57a3.08 3.08 0 0 1 3.07-3.07h20.35V21a1.5 1.5 0 0 0 1.5 1.5h15.5v32.93a3.08 3.08 0 0 1-3.07 3.07" data-original="#000000"/></g></svg>